<?xml version="1.0" encoding="utf-8"?>
<svg viewBox="3.405 183.14 487.052 136.796" xmlns="http://www.w3.org/2000/svg">
  <g id="SvgjsG2226" featurekey="odWo6G-0" transform="matrix(1.368126, 0, 0, 1.368126, 3.404777, 183.140289)" fill="#01aac1" style="user-select: auto;">
    <g xmlns="http://www.w3.org/2000/svg" style="user-select: auto;">
      <path fill-rule="evenodd" clip-rule="evenodd" d="M47.102,0c1.928,0,3.856,0,5.784,0c8.338,0.642,15.042,2.917,20.99,5.95   c-9.545,9.958-19.296,19.708-29.253,29.252c-2.969-3.846-6.214-6.932-13.221-6.279c-6.848,0.638-12.008,6.789-12.065,13.552   c-0.093,11.1,12.636,17.426,21.981,11.239c2.455-1.625,4.708-4.378,6.941-6.611c6.658-6.659,13.369-13.473,19.997-20.164   c5.471,4.927,10.706,10.542,16.196,16.032c0.574,0.574,2.305,1.916,2.314,2.148c0.021,0.503-3.571,3.738-3.967,4.132   c-4.035,4.035-8.129,8.161-12.23,11.9c-2.845-5.982-12.565-8.104-18.84-4.297c-3.834,2.326-6.286,6.06-6.446,11.238   c-0.221,7.125,4.855,13.32,11.9,14.047c9.767,1.009,13.735-5.969,18.51-10.742c8.042-8.042,16.394-16.425,24.295-23.963   c0.308,16.392-5.383,28.214-13.388,36.524c-8.017,8.322-18.679,14.98-33.715,16.03c-1.928,0-3.855,0-5.784,0   c-14.023-1.231-24.828-6.812-32.558-14.543C6.814,77.715,1.225,66.916,0,52.887c0-1.929,0-3.857,0-5.785   C0.812,33.583,7.182,22,14.709,14.544C22.682,6.645,33.328,1.089,47.102,0z" style="user-select: auto;"/>
    </g>
  </g>
  <g id="SvgjsG2227" featurekey="textGroupContainer" transform="matrix(1.368124, 0, 0, 1.368124, 489.088898, 195.4534)" fill="#111111" style="user-select: auto;">
    <rect xmlns="http://www.w3.org/2000/svg" y="0" height="1" width="1" opacity="0" style="user-select: auto;"/>
    <rect xmlns="http://www.w3.org/2000/svg" y="0" x="-235" width="3" height="82" style="user-select: auto;"/>
  </g>
  <g id="SvgjsG2228" featurekey="VGK2BT-0" transform="matrix(4.076738, 0, 0, 4.076738, 188.061127, 198.410309)" fill="#111111" style="user-select: auto;">
    <path d="M7.9659 20.11864 c3.8136 0 6.9153 -3.0337 6.9153 -6.9151 c0 -3.8305 -3.1017 -6.8814 -6.9153 -6.8814 c-3.8475 0 -6.9492 3.0508 -6.9492 6.8814 c0 3.8814 3.1017 6.9151 6.9492 6.9151 z M7.9659 18.2714 c-2.7458 0 -5.0339 -2.2881 -5.0339 -5.0678 c0 -2.7456 2.2881 -5.0337 5.0339 -5.0337 c2.7288 0 5.0169 2.2881 5.0169 5.0337 c0 2.7797 -2.2881 5.0678 -5.0169 5.0678 z M24.627105084745764 11.6102 c0.15254 0 0.25424 0.11881 0.25424 0.28831 l0 7.8305 c0 0.15238 -0.10169 0.27102 -0.23729 0.27102 l-1.0508 0 c-0.28814 0 -0.52542 -0.42356 -0.54237 -0.71169 l0 -0.18644 c-0.66102 0.50847 -1.5593 0.99983 -2.7119 0.99983 c-1.7458 0 -3.4915 -1.1015 -3.4915 -3.2202 l0 -3.7458 c0 -0.45763 -0.033898 -0.81356 -0.084746 -1.1695 c-0.033898 -0.18644 0.016949 -0.35593 0.16949 -0.35593 l1.1017 0 c0.42373 0 0.66102 0.28814 0.66102 0.67797 l0 4.4237 c0 1.1186 0.76271 1.7458 1.8983 1.7458 c0.9661 0 1.7627 -0.54237 2.4576 -1.2373 l0 -5.322 c0 -0.16949 0.10169 -0.28831 0.25407 -0.28831 l1.3222 0 z M34.61020847457627 11.6102 l-1.4575 -0.00016552 c-0.15254 0 -0.20339 0.084746 -0.27119 0.25441 l-2.3051 5.0846 l-2.322 -5.0846 c-0.067797 -0.16966 -0.11864 -0.25441 -0.27119 -0.25441 l-1.5254 0 c-0.15254 0 -0.23712 0.084746 -0.16933 0.25441 l3.9153 8.0168 c0.050847 0.11864 0.18644 0.20339 0.28814 0.20339 l0.16949 0 c0.10169 0 0.23712 -0.084746 0.28797 -0.20339 l3.8814 -8.0168 c0.08458 -0.15254 -0.067963 -0.25424 -0.22051 -0.25424 z M42.728806779661014 16.4915 c0.61 0 1.0336 -0.30508 1.0336 -1.0169 c0 -2.0847 -1.6102 -3.9831 -4.0847 -3.9831 c-2.3559 0 -4.2034 1.8644 -4.2034 4.3051 c0 2.5422 1.9322 4.288 4.3051 4.288 c1.5085 0 2.6949 -0.61017 3.4237 -1.5932 c0.10186 -0.13559 0.067963 -0.23729 -0.033568 -0.37288 l-0.32203 -0.42373 c-0.13559 -0.16933 -0.27119 -0.15254 -0.44085 -0.050847 c-0.5422 0.44068 -1.4405 0.81373 -2.4236 0.81373 c-1.3898 0 -2.3729 -0.84746 -2.5593 -1.9661 l5.3051 0 z M37.423606779661014 15.050799999999999 c0.067797 -0.81356 0.83051 -1.8644 2.2203 -1.8644 c1.4068 0 2.1356 1.0678 2.1864 1.8644 l-4.4068 0 z M58.508830508474574 19.69492 c0.08458 0.16966 0.033898 0.30508 -0.15254 0.30508 l-1.5424 0 c-0.15254 0 -0.23712 -0.067631 -0.28797 -0.18644 l-1.0508 -2.2034 l-7.3051 0 l-1.0339 2.2034 c-0.067797 0.11881 -0.15254 0.18644 -0.28814 0.18644 l-1.5593 0 c-0.16949 0 -0.25424 -0.13543 -0.18644 -0.30508 l6.3898 -13.186 c0.050847 -0.11864 0.13559 -0.15254 0.22034 -0.15254 l0.22017 0 c0.084746 0 0.15254 0.033898 0.22034 0.15254 z M49.00013050847458 15.8646 l5.6441 0 l-2.8136 -6 z M67.10168813559322 16.4915 c0.61 0 1.0336 -0.30508 1.0336 -1.0169 c0 -2.0847 -1.6102 -3.9831 -4.0847 -3.9831 c-2.3559 0 -4.2034 1.8644 -4.2034 4.3051 c0 2.5422 1.9322 4.288 4.3051 4.288 c1.5085 0 2.6949 -0.61017 3.4237 -1.5932 c0.10186 -0.13559 0.067963 -0.23729 -0.033568 -0.37288 l-0.32203 -0.42373 c-0.13559 -0.16933 -0.27119 -0.15254 -0.44085 -0.050847 c-0.5422 0.44068 -1.4405 0.81373 -2.4236 0.81373 c-1.3898 0 -2.3729 -0.84746 -2.5593 -1.9661 l5.3051 0 z M61.796488135593215 15.050799999999999 c0.067797 -0.81356 0.83051 -1.8644 2.2203 -1.8644 c1.4068 0 2.1356 1.0678 2.1864 1.8644 l-4.4068 0 z" style="user-select: auto;"/>
  </g>
</svg>